<svg xmlns="http://www.w3.org/2000/svg" viewBox="0 0 64 64" role="img" aria-label="Aurchain Biotech">
  <rect width="64" height="64" rx="15" fill="#EEF7F3"/>
  <path d="M10 53 29 12c1.4-3 5.6-3 7 0l19 41" fill="none" stroke="#063D36" stroke-width="6" stroke-linecap="round" stroke-linejoin="round"/>
  <path d="M19 41h27" stroke="#063D36" stroke-width="5" stroke-linecap="round"/>
  <path d="M25 19c15 7 16 22 2 31M40 19c-15 7-16 22-2 31" fill="none" stroke="#2E7D32" stroke-width="3" stroke-linecap="round"/>
  <path d="m27 25 11 5m-13 5 15 6" stroke="#73A97B" stroke-width="2" stroke-linecap="round"/>
  <path d="M43 9c7-5 13-3 15-1-1 7-6 11-14 10-4-1-5-6-1-9Z" fill="#2E7D32"/>
  <circle cx="9" cy="18" r="3" fill="#2E7D32"/>
</svg>
