<svg xmlns="http://www.w3.org/2000/svg" viewBox="0 0 420 96" role="img" aria-labelledby="title desc">
  <title id="title">AURCHAIN BIOTECH</title>
  <desc id="desc">A letter A formed with a DNA helix, leaf and molecular dots</desc>
  <g fill="none" fill-rule="evenodd">
    <g transform="translate(4 4)">
      <path d="M10 78 42 10c2-4 8-4 10 0l32 68" stroke="#063D36" stroke-width="8" stroke-linecap="round" stroke-linejoin="round"/>
      <path d="M25 56h42" stroke="#063D36" stroke-width="7" stroke-linecap="round"/>
      <path d="M34 22c23 10 25 34 3 48M58 22C35 32 33 56 55 70" stroke="#2E7D32" stroke-width="4" stroke-linecap="round"/>
      <path d="m38 31 16 6M35 44l22 8M37 59l16 6" stroke="#62A66A" stroke-width="2.5" stroke-linecap="round"/>
      <path d="M61 10c10-7 19-5 22-2-2 9-9 16-21 14-5-1-6-8-1-12Z" fill="#2E7D32"/>
      <path d="M65 18c5-4 10-7 16-9" stroke="#EEF7F3" stroke-width="1.8" stroke-linecap="round"/>
      <circle cx="12" cy="18" r="4.5" fill="#2E7D32"/>
      <circle cx="4" cy="35" r="2.8" fill="#62A66A"/>
      <circle cx="82" cy="36" r="3.5" fill="#2E7D32"/>
      <path d="m12 18-8 17M82 36l-8 8" stroke="#8DBB96" stroke-width="1.5"/>
    </g>
    <g fill="#063D36">
      <text x="108" y="48" font-family="Arial, Helvetica, sans-serif" font-size="31" font-weight="700" letter-spacing="2.3">AURCHAIN</text>
      <text x="111" y="70" font-family="Arial, Helvetica, sans-serif" font-size="12" font-weight="700" letter-spacing="6.5" fill="#2E7D32">BIOTECH</text>
    </g>
    <path d="M109 82h248" stroke="#D5E8DF" stroke-width="1"/>
  </g>
</svg>
